<svg id="visual" viewBox="0 0 1800 300" width="1800" height="300" xmlns="http://www.w3.org/2000/svg" xmlns:xlink="http://www.w3.org/1999/xlink" version="1.1"><path d="M0 22L50 27.5C100 33 200 44 300 57.5C400 71 500 87 600 86.5C700 86 800 69 900 56C1000 43 1100 34 1200 43C1300 52 1400 79 1500 81.5C1600 84 1700 62 1750 51L1800 40L1800 0L1750 0C1700 0 1600 0 1500 0C1400 0 1300 0 1200 0C1100 0 1000 0 900 0C800 0 700 0 600 0C500 0 400 0 300 0C200 0 100 0 50 0L0 0Z" fill="#0b182f"></path><path d="M0 40L50 73C100 106 200 172 300 194C400 216 500 194 600 165.5C700 137 800 102 900 95C1000 88 1100 109 1200 121.5C1300 134 1400 138 1500 147.5C1600 157 1700 172 1750 179.5L1800 187L1800 38L1750 49C1700 60 1600 82 1500 79.5C1400 77 1300 50 1200 41C1100 32 1000 41 900 54C800 67 700 84 600 84.5C500 85 400 69 300 55.5C200 42 100 31 50 25.5L0 20Z" fill="#0f1c31"></path><path d="M0 118L50 141.5C100 165 200 212 300 226C400 240 500 221 600 200.5C700 180 800 158 900 156.5C1000 155 1100 174 1200 176.5C1300 179 1400 165 1500 176C1600 187 1700 223 1750 241L1800 259L1800 185L1750 177.5C1700 170 1600 155 1500 145.5C1400 136 1300 132 1200 119.5C1100 107 1000 86 900 93C800 100 700 135 600 163.5C500 192 400 214 300 192C200 170 100 104 50 71L0 38Z" fill="#132033"></path><path d="M0 301L50 301C100 301 200 301 300 301C400 301 500 301 600 301C700 301 800 301 900 301C1000 301 1100 301 1200 301C1300 301 1400 301 1500 301C1600 301 1700 301 1750 301L1800 301L1800 257L1750 239C1700 221 1600 185 1500 174C1400 163 1300 177 1200 174.5C1100 172 1000 153 900 154.5C800 156 700 178 600 198.5C500 219 400 238 300 224C200 210 100 163 50 139.5L0 116Z" fill="#182434"></path></svg>